<svg width="375.04" height="71.853" viewBox="0 0 375.04 71.853" xml:space="preserve" xmlns="http://www.w3.org/2000/svg">
  <defs>
    <clipPath id="a">
      <path d="M0 53.89h281.28V0H0Z"/>
    </clipPath>
  </defs>
  <g clip-path="url(#a)" transform="matrix(1.3333 0 0 -1.3333 0 71.853)">
    <path d="M130.53 11.125h-2.234v.114c0 .755.476 1.21 1.117 1.21s1.117-.444 1.117-1.199zm-1.117 2.276c-1.242 0-2.234-.91-2.234-2.358v-.673c0-1.448.992-2.349 2.244-2.349.765 0 1.666.374 2.039 1.376.019.052.05.115.05.166 0 .104-.072.176-.166.176h-.671c-.145 0-.207-.103-.239-.144-.279-.549-.661-.632-1.013-.632-.641 0-1.127.497-1.127 1.231v.145h3.072c.135 0 .238.114.238.249v.475c0 1.386-.972 2.338-2.193 2.338m-7.047 8.771v19.139c0 .51-.42.93-.93.93h-2.49c-.51 0-.93-.42-.93-.93V22.172c0-.512.42-.932.93-.932h2.49c.51 0 .93.42.93.932m3.041-8.874h-3.414a.25.25 0 0 1-.248-.248v-.487c0-.134.113-.238.248-.238h2.35l-2.413-3.083c-.122-.144-.185-.217-.185-.455v-.424c0-.134.113-.238.248-.238h3.414c.135 0 .239.104.239.238v.476a.243.243 0 0 1-.239.248h-2.389l2.473 3.062a.548.548 0 0 1 .155.404v.497a.243.243 0 0 1-.239.248m-8.186-1.365c0 .434.393.568.838.568.703 0 .879-.352.983-.641.041-.103.072-.155.185-.155h.653c.093 0 .175.062.175.176a.472.472 0 0 1-.019.134c-.156.611-.652 1.386-1.936 1.386-1.023 0-1.954-.444-1.954-1.52 0-2.101 2.937-1.232 2.937-2.308 0-.475-.362-.662-.951-.662-.745 0-.973.425-1.055.693-.031.104-.072.167-.188.167h-.64a.183.183 0 0 1-.186-.167.3.3 0 0 1 .01-.144c.123-.704.775-1.439 2.049-1.439 1.076 0 2.028.404 2.028 1.574 0 2.068-2.929 1.21-2.929 2.338m-11.045 1.468c-.724 0-1.147-.299-1.417-.703v.352a.25.25 0 0 1-.249.248h-.63a.243.243 0 0 1-.239-.248V8.363c0-.134.104-.238.239-.238h.63c.136 0 .249.104.249.238v2.804c0 .827.455 1.282 1.097 1.282.641 0 1.096-.455 1.096-1.282V8.363c0-.134.103-.238.238-.238h.631c.135 0 .248.104.248.238v2.68c0 1.406-.619 2.358-1.893 2.358m6.45-6.589h-.818c-.704 0-.952.279-.952.723 0 .456.248.745.952.745h.818c.713 0 .972-.289.972-.745 0-.444-.259-.723-.972-.723m-.539 5.72h.279c.622 0 .973-.383.973-.91-.01-.538-.371-.9-.973-.9h-.279c-.61 0-.973.362-.973.9 0 .527.363.91.973.91m.746-3.403h-1.336c-.351 0-.506.103-.506.362 0 .238.166.372.414.372h1.004c1.158 0 1.965.621 1.965 1.759v2.121a.234.234 0 0 1-.239.237h-.517c-.145 0-.248-.103-.248-.237v-.673a1.796 1.796 0 0 1-1.055.331h-.26c-1.168 0-1.974-.682-1.974-1.779 0-.549.207-.952.662-1.263-.486-.113-.703-.444-.703-.847 0-.352.154-.642.474-.786-.455-.228-.703-.642-.703-1.191 0-.868.641-1.582 1.821-1.582h1.201c1.158 0 1.81.703 1.81 1.582 0 .88-.652 1.594-1.81 1.594m40.188 4.169h-.632a.243.243 0 0 1-.238-.248v-2.804c0-.828-.413-1.283-1.055-1.283-.632 0-1.015.455-1.015 1.283v2.804a.251.251 0 0 1-.248.248h-.631a.242.242 0 0 1-.238-.248v-2.68c0-1.448.59-2.349 1.811-2.349.746 0 1.116.291 1.376.663v-.321c0-.134.104-.238.238-.238h.632c.134 0 .247.104.247.238v4.687a.25.25 0 0 1-.247.248m-17.046.103c-.724 0-1.148-.299-1.417-.703v.352a.251.251 0 0 1-.249.248h-.63a.243.243 0 0 1-.239-.248V8.363c0-.134.104-.238.239-.238h.63c.135 0 .249.104.249.238v2.804c0 .827.454 1.282 1.096 1.282s1.097-.455 1.097-1.282V8.363c0-.134.103-.238.238-.238h.631c.135 0 .248.104.248.238v2.68c0 1.406-.621 2.358-1.893 2.358m-21.859 8.771v2.219c0 .509-.42.929-.93.929h-7.98v15.991c0 .51-.419.93-.93.93h-2.489a.935.935 0 0 1-.931-.93V22.172c0-.512.42-.932.931-.932h11.399c.51 0 .93.42.93.932m47.814 20.069h-2.49c-.51 0-.93-.42-.93-.93v-7.5h-7.11v7.5c0 .51-.42.93-.93.93h-2.49a.934.934 0 0 1-.929-.93V22.172c0-.512.419-.932.929-.932h2.49c.51 0 .93.42.93.932v7.559h7.11v-7.559c0-.512.42-.932.93-.932h2.49c.51 0 .93.42.93.932v19.139c0 .51-.42.93-.93.93m-.941-28.84c-.713 0-1.251-.299-1.604-.838-.33.59-.888.838-1.519.838-.705 0-1.098-.32-1.345-.693v.342a.251.251 0 0 1-.249.248h-.631a.242.242 0 0 1-.237-.248V8.363c0-.134.103-.238.237-.238h.631c.135 0 .249.104.249.238v2.638c0 .838.165 1.448 1.044 1.448.807 0 .983-.507.983-1.448V8.363c0-.134.103-.238.238-.238h.64c.125 0 .239.104.239.238v2.638c0 .89.207 1.448 1.045 1.448s.982-.558.982-1.448V8.363c0-.134.104-.238.238-.238h.631c.135 0 .248.104.248.238v2.534c0 1.491-.299 2.504-1.82 2.504m-18.619-.103h-1.045v1.097a.243.243 0 0 1-.238.248h-.61a.243.243 0 0 1-.238-.248v-.456c0-.527-.207-.641-.713-.641a.242.242 0 0 1-.238-.248v-.497c0-.134.103-.238.238-.238h.703V9.78c0-1.065.362-1.655 1.604-1.655h.537c.135 0 .248.104.248.238v.528a.243.243 0 0 1-.248.238h-.352c-.621 0-.693.217-.693.807v2.379h1.045c.135 0 .248.104.248.238v.497a.25.25 0 0 1-.248.248m.097 15.443h-3.091c-.6 0-.72-.48-.78-.93-.15-1.44-1.23-2.79-3.42-2.79s-3.959 1.62-3.959 4.71v3.96c0 3.09 1.769 4.77 3.959 4.77s3.18-1.47 3.42-2.91c.09-.6.42-.81.75-.81h3.06c.45 0 .69.3.661.75-.241 3.63-3.091 7.05-7.891 7.05s-8.31-3.54-8.31-8.79v-4.02c0-5.251 3.51-8.79 8.31-8.79s7.68 3.539 7.95 7.08c.03.33-.239.72-.659.72m4.592-15.443h-.134c-.672 0-1.117-.352-1.375-.776v.528a.243.243 0 0 1-.239.248h-.58a.242.242 0 0 1-.238-.248V8.363c0-.134.103-.238.238-.238h.621c.136 0 .248.104.248.238v2.338c0 .973.446 1.49 1.315 1.49h.144c.135 0 .249.104.249.238v.621a.251.251 0 0 1-.249.248M94.985 42.241h-2.49c-.51 0-.93-.42-.93-.93v-11.88c0-3.089-1.5-4.41-3.63-4.41s-3.57 1.321-3.57 4.41v11.88c0 .51-.419.93-.93.93h-2.489a.935.935 0 0 1-.931-.93v-11.88c0-5.249 3.181-8.49 7.92-8.49 4.741 0 7.98 3.241 7.98 8.49v11.88c0 .51-.42.93-.93.93M67.572 15.367h-4.035a.243.243 0 0 1-.237-.248V8.363c0-.134.103-.238.237-.238h.631c.134 0 .248.104.248.238v2.649h2.493c.135 0 .249.103.249.238v.559a.253.253 0 0 1-.249.248h-2.493v2.265h3.156c.134 0 .249.104.249.239v.558a.253.253 0 0 1-.249.248m4.533-5.121c0-.828-.466-1.283-1.117-1.283-.632 0-1.108.455-1.108 1.283v.921c0 .827.476 1.282 1.108 1.282.651 0 1.117-.455 1.117-1.282zm-1.117 3.155c-1.242 0-2.225-.91-2.225-2.358v-.673c0-1.448.983-2.349 2.225-2.349 1.251 0 2.234.901 2.234 2.349v.673c0 1.448-.983 2.358-2.234 2.358m4.393 27.91c0 .51-.42.93-.93.93h-2.49c-.51 0-.93-.42-.93-.93v-13.56c0-1.89-1.469-2.73-2.55-2.73-1.08 0-2.52.84-2.52 2.73v.27c0 .51-.42.93-.93.93h-2.4c-.51 0-.93-.42-.93-.93v-.21c0-4.35 3.361-6.87 6.78-6.87 3.48 0 6.9 2.52 6.9 6.87zM36.643 25.959c-4.442-11.5-15.062-15.816-24.746-14.154a22.587 22.587 0 0 1 8.14-5.399c11.678-4.513 24.805 1.297 29.317 12.977 3.436 8.893.882 18.622-5.687 24.752zm54.622 18.112c1.29 0 2.161.87 2.161 2.16s-.871 2.16-2.161 2.16-2.16-.87-2.16-2.16.87-2.16 2.16-2.16M23.227 30.928l7.407 19.169c-9.201.995-18.292-3.76-22.607-12.207-.014-.041-.018-.083-.034-.124l-.319-.828c-2.241-5.798 1.179-10.083 4.495-11.364 3.31-1.279 8.819-.443 11.058 5.354m61.739 13.143c1.289 0 2.159.87 2.159 2.16s-.87 2.16-2.159 2.16c-1.291 0-2.161-.87-2.161-2.16s.87-2.16 2.161-2.16m1.971-31.622c.611 0 .941-.372 1.075-.91a.18.18 0 0 1 .176-.155h.716c.091 0 .154.072.154.166 0 .041 0 .083-.02.134-.219.952-.973 1.717-2.101 1.717-1.231 0-2.204-.91-2.204-2.358v-.673c0-1.448.973-2.349 2.204-2.349 1.292 0 1.976.953 2.101 1.667.01.051.02.124.02.165 0 .093-.073.166-.176.166h-.713c-.084 0-.147-.041-.166-.145-.135-.61-.496-.911-1.066-.911-.641 0-1.117.455-1.117 1.283v.921c0 .827.476 1.282 1.117 1.282m14.302.849h-.631a.242.242 0 0 1-.238-.248v-2.804c0-.828-.414-1.283-1.055-1.283-.631 0-1.014.455-1.014 1.283v2.804a.25.25 0 0 1-.247.248h-.631a.243.243 0 0 1-.239-.248v-2.68c0-1.448.591-2.349 1.811-2.349.744 0 1.118.291 1.375.663v-.321c0-.134.103-.238.238-.238h.631c.135 0 .249.104.249.238v4.687a.251.251 0 0 1-.249.248m-7.968.103c-.735 0-1.158-.299-1.429-.693v2.411a.251.251 0 0 1-.248.248h-.63a.244.244 0 0 1-.239-.248V8.363c0-.134.104-.238.239-.238h.63c.135 0 .248.104.248.238v2.804c0 .827.456 1.282 1.098 1.282.641 0 1.096-.455 1.096-1.282V8.363c0-.134.103-.238.239-.238h.63c.135 0 .249.104.249.238v2.68c0 1.406-.61 2.358-1.883 2.358m-12.968-1.468c0 .434.393.568.838.568.703 0 .88-.352.982-.641.042-.103.073-.155.187-.155h.652c.092 0 .175.062.175.176 0 .052-.01.103-.021.134-.154.611-.651 1.386-1.934 1.386-1.024 0-1.955-.444-1.955-1.52 0-2.101 2.938-1.232 2.938-2.308 0-.475-.362-.662-.952-.662-.745 0-.972.425-1.055.693-.031.104-.072.167-.186.167h-.642a.184.184 0 0 1-.186-.167.311.311 0 0 1 .011-.144c.124-.704.775-1.439 2.048-1.439 1.076 0 2.028.404 2.028 1.574 0 2.068-2.928 1.21-2.928 2.338m-2.774 1.365h-.135c-.673 0-1.117-.352-1.376-.776v.528a.242.242 0 0 1-.238.248h-.579a.243.243 0 0 1-.238-.248V8.363c0-.134.104-.238.238-.238h.621c.134 0 .248.104.248.238v2.338c0 .973.445 1.49 1.314 1.49h.145c.134 0 .248.104.248.238v.621a.251.251 0 0 1-.248.248m109.891 28.95c.11 0 .198-.088.198-.198v-5.248c0-1.518-1.034-2.365-2.222-2.365-1.134 0-2.201.847-2.201 2.365v.242c0 .11.078.187.187.187h.452a.18.18 0 0 0 .187-.187v-.264c0-1.056.66-1.562 1.375-1.562.726 0 1.386.506 1.386 1.562v5.27c0 .11.077.198.176.198zm4.95 1.441c0 .319.209.528.528.528.308 0 .528-.209.528-.528s-.22-.528-.528-.528c-.319 0-.528.209-.528.528m-1.915 0c0 .319.209.528.529.528.308 0 .528-.209.528-.528s-.22-.528-.528-.528c-.32 0-.529.209-.529.528m3.994-1.441c.11 0 .187-.088.187-.198v-4.643c0-1.826-1.111-2.97-2.706-2.97-1.584 0-2.706 1.144-2.706 2.97v4.643c0 .11.077.198.175.198h.463c.11 0 .197-.088.197-.198v-4.643c0-1.408.782-2.189 1.871-2.189s1.87.781 1.87 2.189v4.643c0 .11.077.198.187.198zm6.771-7.524c0-.11-.088-.176-.187-.176h-4.466c-.099 0-.177.066-.177.176v7.327c0 .11.078.198.177.198h.462a.198.198 0 0 0 .198-.198v-6.722h3.806c.099 0 .187-.088.187-.198zm1.41-.177c-.099 0-.176.066-.176.176v7.327c0 .11.077.198.176.198h.462c.11 0 .198-.088.198-.198v-7.327c0-.11-.088-.176-.198-.176zm7.74 2.586c.066 0 .132-.055.121-.132-.077-1.364-1.155-2.563-2.75-2.563-1.596 0-2.839 1.177-2.839 2.992v1.925c0 1.838 1.221 3.004 2.828 3.004 1.595 0 2.596-1.122 2.761-2.454.011-.132-.055-.176-.154-.176h-.561c-.066 0-.121.044-.143.176-.143.892-.814 1.662-1.903 1.662-1.1 0-1.981-.814-1.981-2.223V37.43c0-1.397.892-2.212 1.992-2.212 1.078 0 1.782.727 1.903 1.772.022.088.066.143.143.143zm6.42-2.586c-.099 0-.176.066-.176.176v3.378h-3.729v-3.378c0-.11-.089-.176-.199-.176h-.461c-.1 0-.177.066-.177.176v7.327c0 .11.077.198.177.198h.461c.11 0 .199-.088.199-.198v-3.169h3.729v3.169c0 .11.077.198.176.198h.462c.11 0 .198-.088.198-.198v-7.327c0-.11-.088-.176-.198-.176zm-28.61-7.578c-.11 0-.165.055-.187.165-.044.671-.363 1.266-1.639 1.266-1.001 0-1.705-.264-1.705-1.277 0-2.222 4.367-.847 4.367-3.751 0-1.573-1.353-2.134-2.651-2.134-2.08 0-2.795 1.44-2.795 2.354 0 .11.077.187.188.187h.472c.111 0 .177-.088.187-.176.012-.484.342-1.617 1.959-1.617 1.034 0 1.815.374 1.815 1.386 0 2.046-4.379.726-4.379 3.751 0 1.419 1.056 2.035 2.542 2.035 1.969 0 2.475-1.199 2.475-2.013 0-.099-.088-.176-.187-.176zm7.44 2.08c.11 0 .187-.088.187-.198v-4.643c0-1.826-1.111-2.97-2.706-2.97-1.585 0-2.707 1.144-2.707 2.97v4.643c0 .11.078.198.176.198h.463a.197.197 0 0 0 .197-.198v-4.643c0-1.408.782-2.189 1.871-2.189s1.87.781 1.87 2.189v4.643c0 .11.077.198.187.198zm2.79-4.027h1.936c.825 0 1.573.462 1.573 1.541v.23c0 1.09-.748 1.464-1.573 1.464h-1.936zm0-.781v-2.718c0-.109-.088-.175-.198-.175h-.462c-.099 0-.176.066-.176.175v7.328c0 .11.077.198.176.198h2.629c1.419 0 2.376-.781 2.376-2.244v-.221c0-1.463-.957-2.343-2.376-2.343zm10.48 4.203c0-.11-.088-.187-.198-.187h-3.719v-2.629h2.982a.18.18 0 0 0 .187-.187v-.408a.179.179 0 0 0-.187-.187h-2.982v-2.717h3.719c.11 0 .198-.088.198-.187v-.418c0-.11-.088-.176-.198-.176h-4.379c-.099 0-.176.066-.176.176v7.327c0 .11.077.198.176.198h4.379c.11 0 .198-.088.198-.198zm2.27-3.202h1.936c.825 0 1.573.451 1.573 1.408v.176c0 1.089-.748 1.431-1.573 1.431h-1.936zm0-3.719c0-.11-.088-.176-.198-.176h-.462c-.099 0-.176.066-.176.176v7.327c0 .111.077.199.176.199h2.629c1.419 0 2.376-.748 2.376-2.212v-.165c0-.979-.517-1.782-1.65-2.079l1.584-2.971c.033-.066.055-.109.055-.153 0-.078-.055-.122-.132-.122h-.605c-.11 0-.165.066-.209.144l-1.54 2.97h-1.848zm11.06 2.41c.066 0 .132-.055.121-.132-.077-1.364-1.155-2.563-2.75-2.563-1.596 0-2.839 1.177-2.839 2.992v1.925c0 1.838 1.221 3.004 2.828 3.004 1.595 0 2.596-1.122 2.761-2.454.011-.132-.055-.176-.154-.176h-.561c-.066 0-.121.044-.143.176-.143.892-.814 1.662-1.903 1.662-1.1 0-1.981-.814-1.981-2.223V24.23c0-1.397.892-2.212 1.992-2.212 1.078 0 1.782.727 1.903 1.772.022.088.066.143.143.143zm2.27.297c0-1.397.891-2.211 1.991-2.211 1.079 0 1.981.814 1.981 2.211v1.903c0 1.409-.902 2.234-1.992 2.234-1.1 0-1.98-.825-1.98-2.234zm-.847 1.915c0 1.836 1.221 3.014 2.827 3.014 1.596 0 2.828-1.178 2.828-3.014V24.23c0-1.815-1.222-2.992-2.817-2.992s-2.838 1.177-2.838 2.992zm7.447-4.797c-.099 0-.176.066-.176.176v7.327c0 .11.077.198.176.198h.88c.099 0 .143-.055.176-.11l2.431-6.458 2.454 6.447c.033.077.077.121.154.121h.858c.099 0 .187-.088.187-.198v-7.327c0-.11-.088-.176-.187-.176h-.451c-.11 0-.176.066-.176.176v6.348l-2.453-6.403c-.034-.077-.089-.121-.177-.121h-.429c-.11 0-.142.044-.176.121l-2.464 6.403v-6.348c0-.11-.077-.176-.187-.176zm9.84 3.674h1.936c.825 0 1.573.462 1.573 1.541v.23c0 1.09-.748 1.464-1.573 1.464h-1.936zm0-.781v-2.718c0-.109-.088-.175-.198-.175h-.462c-.099 0-.176.066-.176.175v7.328c0 .11.077.198.176.198h2.629c1.419 0 2.376-.781 2.376-2.244v-.221c0-1.463-.957-2.343-2.376-2.343zm10.85 4.808c.11 0 .187-.088.187-.198v-4.643c0-1.826-1.111-2.97-2.707-2.97-1.584 0-2.706 1.144-2.706 2.97v4.643c0 .11.078.198.176.198h.462c.11 0 .198-.088.198-.198v-4.643c0-1.408.782-2.189 1.87-2.189 1.089 0 1.871.781 1.871 2.189v4.643c0 .11.077.198.187.198zm1.23-.199c0 .11.076.198.187.198h5.457a.198.198 0 0 0 .198-.198v-.407c0-.11-.089-.187-.198-.187h-2.311v-6.733c0-.11-.077-.176-.187-.176h-.462c-.11 0-.176.066-.176.176v6.733h-2.321a.178.178 0 0 0-.187.187zm7.17-7.502c-.1 0-.177.066-.177.176v7.327c0 .11.077.198.177.198h.462a.198.198 0 0 0 .198-.198v-7.327c0-.11-.089-.176-.198-.176zm3.16 0h-.45c-.1 0-.177.066-.177.176v7.327c0 .11.077.198.177.198h.55c.121 0 .175-.088.219-.154l3.774-5.974v5.93c0 .11.066.198.177.198h.45c.11 0 .187-.088.187-.198v-7.327c0-.11-.077-.176-.187-.176h-.374c-.076 0-.176 0-.297.209l-3.862 6.095v-6.128c0-.11-.077-.176-.187-.176m9.43 3.146c-.11 0-.187.066-.187.176v.396c0 .11.077.187.187.187h2.509a.179.179 0 0 0 .186-.187v-3.543c0-.11-.077-.175-.186-.175h-.397c-.11 0-.175.065-.175.175v.771c-.375-.65-1.156-1.056-2.025-1.056-1.782 0-2.816 1.364-2.816 2.992v1.914c0 1.837 1.232 3.015 2.838 3.015 1.595 0 2.519-1.079 2.751-2.332.01-.1.01-.133.01-.177 0-.077-.044-.121-.109-.121h-.595c-.077 0-.121.055-.142.176-.1.792-.748 1.662-1.915 1.662-1.1 0-1.992-.826-1.992-2.234V24.23c0-1.397.892-2.212 2.003-2.212 1.365 0 1.937 1.145 1.937 1.904v.572zm-83.59-13.761c.066 0 .132-.055.121-.132-.077-1.364-1.155-2.563-2.75-2.563-1.596 0-2.839 1.177-2.839 2.992v1.925c0 1.838 1.221 3.004 2.828 3.004 1.595 0 2.596-1.122 2.761-2.454.011-.132-.055-.176-.154-.176h-.561c-.066 0-.121.044-.143.176-.143.892-.814 1.662-1.903 1.662-1.1 0-1.981-.814-1.981-2.223V11.03c0-1.397.892-2.212 1.992-2.212 1.078 0 1.782.727 1.903 1.772.022.088.066.143.143.143zm6.43 4.511c0-.11-.088-.187-.198-.187h-3.719v-2.629h2.981a.18.18 0 0 0 .188-.187v-.408a.18.18 0 0 0-.188-.187h-2.981V8.929h3.719c.11 0 .198-.088.198-.187v-.418c0-.11-.088-.176-.198-.176h-4.379c-.099 0-.176.066-.176.176v7.327c0 .11.077.198.176.198h4.379c.11 0 .198-.088.198-.198zm2.06-7.097h-.451c-.099 0-.176.066-.176.176v7.327c0 .11.077.198.176.198h.55c.121 0 .176-.088.22-.154l3.774-5.974v5.93c0 .11.066.198.176.198h.451c.11 0 .187-.088.187-.198V8.323c0-.11-.077-.176-.187-.176h-.374c-.077 0-.176 0-.297.209l-3.862 6.095V8.323c0-.11-.077-.176-.187-.176m6.07 7.503c0 .11.077.198.187.198h5.457a.198.198 0 0 0 .198-.198v-.407c0-.11-.089-.187-.198-.187h-2.311V8.323c0-.11-.077-.176-.187-.176h-.462c-.11 0-.176.066-.176.176v6.733h-2.321a.179.179 0 0 0-.187.187zm7.83-3.608h1.936c.825 0 1.573.451 1.573 1.408v.176c0 1.089-.748 1.431-1.573 1.431h-1.936zm0-3.719c0-.11-.088-.176-.198-.176h-.462c-.099 0-.176.066-.176.176v7.327c0 .111.077.199.176.199h2.629c1.419 0 2.376-.748 2.376-2.212v-.165c0-.979-.517-1.782-1.65-2.079l1.584-2.971c.033-.066.055-.109.055-.153 0-.078-.055-.122-.132-.122h-.605c-.11 0-.165.066-.209.144l-1.54 2.97h-1.848zm10.62 6.921c0-.11-.088-.187-.198-.187h-3.719v-2.629h2.982a.18.18 0 0 0 .187-.187v-.408a.179.179 0 0 0-.187-.187h-2.982V8.929h3.719c.11 0 .198-.088.198-.187v-.418c0-.11-.088-.176-.198-.176h-4.379c-.099 0-.176.066-.176.176v7.327c0 .11.077.198.176.198h4.379c.11 0 .198-.088.198-.198z" fill="#ffffff"/>
    <path d="m173.01 50.224-.003-45.357" fill="none" stroke="#ffffff" stroke-miterlimit="10" stroke-width=".8"/>
  </g>
</svg>
